<?xml version="1.0" encoding="utf-8"?>
<!-- Generator: Adobe Illustrator 21.0.0, SVG Export Plug-In . SVG Version: 6.00 Build 0)  -->
<svg version="1.1" id="Layer_1" xmlns="http://www.w3.org/2000/svg" xmlns:xlink="http://www.w3.org/1999/xlink" x="0px" y="0px"
	 viewBox="0 0 16 16" style="enable-background:new 0 0 16 16;" xml:space="preserve">
<path d="M16,7.7c0,0,0-0.1,0-0.1c0,0-0.1-0.1-0.1-0.1c0,0-0.1,0-0.1,0c-0.2-0.3-0.3-0.7-0.5-1c-0.1-0.2-0.2-0.3-0.4-0.4
	c-0.1-0.1-0.1-0.2-0.2-0.2c0-0.1,0-0.1-0.1-0.2c0,0,0,0,0-0.1c0,0,0-0.1-0.1-0.1c0.1-0.1,0.1-0.3-0.1-0.3c0,0,0,0,0,0
	c0-0.1-0.1-0.2-0.1-0.3c0,0,0-0.1,0-0.1c0-0.1-0.1-0.3-0.1-0.4C14,4,13.8,3.6,13.7,3.1c0-0.1-0.1-0.1-0.1-0.1c0,0,0,0,0,0
	c0-0.1,0.1-0.1,0-0.2c-0.3-0.4-0.7-0.6-1.2-0.9c-0.2-0.1-0.4-0.2-0.6-0.3c0,0-0.1,0-0.1,0c0,0,0,0,0,0c-0.2-0.1-0.5-0.2-0.7-0.3
	c-0.1,0-0.1-0.1-0.2-0.1c0,0-0.1-0.1-0.1-0.1c0,0,0,0,0,0C10.5,1.1,10.4,1,10.3,1C10.2,0.9,10,0.9,9.9,0.8c0,0,0,0,0,0
	c-0.1,0-0.1-0.1-0.2-0.1C9.4,0.6,9.2,0.4,8.9,0.3C8.7,0.1,8.5-0.1,8.3-0.2c-0.1-0.1-0.2,0-0.2,0c0,0-0.1,0-0.1,0.1
	C7.9,0,7.8,0.1,7.7,0.1c0,0,0,0-0.1,0c-0.1,0-0.2,0.1-0.2,0.2c-0.1,0-0.1,0.1-0.2,0.1c0,0-0.1-0.1-0.1-0.1C7.1,0.4,7,0.5,7,0.6
	C7,0.6,6.9,0.7,6.8,0.7c0,0-0.1,0-0.1,0c-0.1,0-0.1,0.1-0.2,0.1c-0.1,0-0.2,0.1-0.2,0.1c0,0,0,0,0,0c-0.1,0-0.1,0-0.1,0.1
	C6,1,5.9,1,5.8,1c-0.3,0.1-0.7,0.3-1,0.5c0,0,0,0,0,0c-0.1,0-0.1,0-0.1,0.1c0,0,0,0,0,0c-0.1,0-0.2,0.1-0.3,0.1c0,0,0,0,0,0
	c0,0-0.1,0-0.1,0c-0.1,0-0.1,0-0.1,0.1c0,0-0.1,0-0.1,0c-0.2,0-0.4,0-0.6,0.1C3.3,1.9,3.3,2,3.3,2c0,0,0,0,0,0c0,0-0.1-0.1-0.1,0
	C3.1,2,3,2,3,2c0,0,0,0.1,0,0.1v0c0,0,0,0.1,0,0.1c0,0-0.1,0.1-0.1,0.1c0,0.1,0,0.2-0.1,0.4c0,0,0,0,0,0.1c0,0.1-0.1,0.3-0.1,0.4
	c0,0,0,0,0,0c0,0.1-0.1,0.1,0,0.2c0,0.1,0,0.1,0,0.2c0,0,0,0,0,0c-0.1,0-0.2,0.2-0.1,0.3c0,0,0,0.1-0.1,0.1c0,0,0,0,0,0h0
	c0,0-0.1,0-0.1,0c0,0,0,0.1,0,0.1c0,0,0,0.1,0,0.1C2.3,4.4,2.2,4.5,2.2,4.6c-0.1,0-0.1,0.1-0.1,0.2C2,5,2,5.1,1.9,5.2
	c-0.1,0-0.1,0.1-0.1,0.2C1.8,5.5,1.7,5.6,1.6,5.7c0,0,0,0.1,0,0.1C1.3,6.2,1.1,6.6,0.9,7C0.8,7.2,0.6,7.3,0.5,7.5
	C0.3,7.7,0.2,7.9,0.2,8.1c0,0,0,0.1,0,0.1c0,0-0.1,0-0.1,0c0,0-0.1,0.1-0.1,0.1c0,0,0,0.1,0,0.1c0,0,0,0,0,0c0,0,0,0,0,0
	c0,0,0,0,0,0c0,0,0.1,0,0.1,0c0,0.1,0.1,0.1,0.1,0.2c0,0.1,0,0.2,0.1,0.2c0,0.1,0.1,0.1,0.1,0.2c0,0.1,0,0.1,0.1,0.2
	C0.8,9.4,0.9,9.5,1,9.5C1,9.6,1,9.7,1.1,9.7c0,0,0,0,0,0c0,0,0.1,0.1,0.1,0.1c0,0.1,0,0.2,0.1,0.2c0,0,0.1,0,0.1,0c0,0,0,0,0.1,0.1
	c0,0,0.1,0.1,0.1,0.2c0,0.1,0,0.2,0.1,0.2c0,0.1,0.1,0.1,0.1,0.2C1.8,10.8,1.8,11,2,11c0,0,0,0,0,0c0,0,0,0,0,0.1
	c0,0.1,0,0.2,0.1,0.2c0,0,0,0.1,0.1,0.1c0,0.1,0,0.1,0.1,0.2c0,0.1,0.1,0.1,0.1,0.2c0,0.1,0,0.2,0.1,0.2c0,0,0,0.1,0,0.1
	c0.2,0.4,0.3,0.9,0.5,1.3c0,0.1,0,0.2,0.1,0.2c0.1,0.1,0.1,0.1,0.2,0.1c0,0,0,0,0,0c0.1,0,0.2,0.1,0.3,0.1c0,0,0.1,0.1,0.1,0.1
	c0,0,0,0,0.1,0C4.1,13.9,4.4,14,4.6,14c0.2,0,0.3,0.1,0.5,0.1c0,0,0.1,0.1,0.1,0.1c0,0,0.1,0,0.1,0c0.2,0.1,0.4,0.1,0.6,0.2
	c0.1,0,0.3,0.1,0.4,0.2c0,0,0.1,0,0.1,0c0,0,0,0,0,0c0.1,0,0.2,0.1,0.3,0.1c0,0.1,0.1,0.1,0.2,0.1c0,0,0.1,0,0.1,0c0,0,0,0,0.1,0
	c0,0.1,0.1,0.2,0.2,0.2c0,0,0.1,0,0.1,0c0.1,0,0.1,0.1,0.2,0.1c0,0.1,0,0.2,0.2,0.2c0,0,0.1,0,0.1,0c0.1,0,0.1,0.1,0.2,0.1
	c0,0.1,0.1,0.2,0.2,0.2c0,0,0,0,0.1,0c0.1,0,0.1,0.1,0.2,0.2c0,0,0.1,0,0.1,0c0,0,0.1,0.1,0.1,0.1c0,0,0,0,0.1,0c0,0,0.1,0,0.1,0
	c0.1-0.1,0.2-0.1,0.3-0.2c0.1,0,0.1-0.1,0.1-0.1c0.2-0.2,0.4-0.3,0.5-0.5c0,0,0,0,0,0c0.1,0,0.1-0.1,0.2-0.1c0,0,0.1-0.1,0.1-0.1
	c0,0,0.1,0,0.1,0c0.1,0,0.2-0.1,0.2-0.2c0.1-0.1,0.2-0.1,0.3-0.1c0,0,0,0,0.1,0c0.1,0,0.1-0.1,0.2-0.1c0.1,0,0.1,0,0.2-0.1
	c0,0,0.1,0,0.1,0c0,0,0,0,0,0c0.1,0,0.1,0,0.1-0.1c0.1,0,0.2-0.1,0.3-0.1c0,0,0.1,0,0.1,0c0.1,0,0.1,0,0.1-0.1
	c0.1,0,0.3-0.1,0.5-0.1c0.1,0,0.3,0,0.4,0c0,0,0,0,0,0c0,0,0,0,0,0c0.3,0,0.6,0,0.8,0c0,0,0,0,0.1,0c0.1,0.1,0.3,0,0.2-0.2
	c0,0,0,0,0,0c0,0,0-0.1,0-0.1c0,0,0,0,0,0c0,0,0,0,0-0.1c0-0.1,0-0.2,0-0.3c0,0,0-0.1,0-0.1c0-0.1,0-0.2,0-0.3
	c0-0.2,0.1-0.4,0.2-0.6c0.1-0.2,0.1-0.5,0.1-0.7c0-0.1,0-0.1,0-0.2c0.1,0,0.1-0.1,0.1-0.2c0-0.1,0.1-0.1,0.1-0.2
	c0.1,0,0.1-0.1,0.1-0.2c0.2-0.4,0.4-0.8,0.6-1.2c0.1-0.2,0.2-0.5,0.4-0.7c0,0,0,0,0,0c0.1-0.1,0.1-0.2,0.2-0.3c0,0,0,0,0,0
	c0,0,0.1,0,0.1-0.1c0,0,0-0.1,0-0.1c0,0,0,0,0-0.1c0,0,0,0,0,0C16,8,16,7.9,16,7.9C16,7.8,16,7.8,16,7.7z M13.5,3.5
	c-0.1,0.1-0.1,0.3,0.1,0.3c0,0,0,0.1,0,0.1c-0.1,0.1,0,0.2,0.1,0.3c0,0.1,0,0.2,0.1,0.3c-0.1,0.1,0,0.3,0.1,0.3
	c0.1,0.4,0.2,0.8,0.4,1.1c0.1,0.2,0.2,0.3,0.3,0.5c0.1,0.1,0.1,0.1,0.2,0.2c0,0.1,0.1,0.1,0.1,0.1c0,0,0.1,0.1,0.1,0.1
	c0,0,0,0.1,0.1,0.1C15,6.9,15,7,15.1,7c0.1,0.1,0.1,0.2,0.2,0.3c0,0,0,0,0,0.1c0,0,0,0.1,0.1,0.1c0,0,0.1,0.1,0.1,0.1
	c0,0-0.1,0-0.1,0c0,0,0,0,0,0c0,0,0,0-0.1,0c0,0-0.1,0-0.1,0c-0.1,0-0.2,0-0.2,0c0,0,0,0-0.1,0c0,0,0,0,0,0c-0.4,0-0.7,0-1.1,0.1
	c0,0,0,0-0.1,0c0,0-0.1,0-0.1,0c-0.5,0-1,0-1.5,0c0,0,0-0.1-0.1-0.1c0,0-0.1-0.1-0.1-0.1c0-0.1,0-0.1-0.1-0.1c0,0,0-0.1,0-0.1
	l-0.2-0.5c-0.1-0.3-0.2-0.7-0.4-1c0,0,0,0,0,0c0.1-0.1,0.1-0.1,0.2-0.2c0.2-0.2,0.3-0.5,0.5-0.7c0,0,0,0,0,0c0,0,0,0,0,0
	c0.1,0,0.2-0.1,0.2-0.2c0,0,0.1-0.1,0.1-0.1c0.1,0,0.1-0.1,0.1-0.1c0,0,0.1,0,0.1-0.1c0.4-0.3,0.7-0.6,1-1
	C13.4,3.3,13.5,3.4,13.5,3.5z M11.4,9.2c0,0.1-0.1,0.2-0.1,0.2c0,0,0,0,0,0c-0.2,0-0.2,0.3-0.1,0.3c0,0.1,0,0.1-0.1,0.2
	c-0.2,0-0.2,0.2-0.1,0.3c0,0.1-0.1,0.2-0.1,0.2c-0.1-0.1-0.2-0.2-0.2-0.3c-0.2-0.4-0.5-0.7-0.8-1.1c0,0-0.1-0.1-0.1-0.1
	c0-0.3,0.2-0.6,0.3-0.8c0,0,0-0.1,0-0.1c0,0,0,0,0,0c0,0,0.1,0,0.1,0c0.2,0,0.3,0,0.5-0.1c0,0.1,0.1,0.1,0.1,0.1
	c0.1,0,0.1-0.1,0.2-0.1c0,0,0.1,0,0.1,0c0,0.1,0.1,0.1,0.2,0.1c0.1,0,0.2-0.1,0.2-0.2c0.1,0,0.3,0,0.4,0c0,0,0,0,0,0c0,0,0,0,0,0
	c-0.2,0.3-0.4,0.6-0.6,1C11.4,9,11.3,9.1,11.4,9.2z M4.5,4.5c0-0.2,0.1-0.3,0.1-0.5c0,0.1,0,0.1,0.1,0.1c0,0,0.1,0.1,0.1,0.1
	C4.9,4.4,5,4.4,5,4.5c0,0.1,0.1,0.1,0.2,0.1c0,0,0,0,0,0c0.1,0,0.1,0.1,0.2,0.1C5.5,4.8,5.5,4.9,5.6,5c0,0.1,0,0.2,0.1,0.2
	c0,0,0,0,0.1,0C5.8,5.3,5.9,5.3,6,5.4C6,5.5,6.1,5.6,6.2,5.7c0,0.1,0,0.1,0,0.2C6.1,5.9,6,6.1,6.2,6.2C6.1,6.4,6,6.6,5.9,6.8
	C5.8,7.1,5.6,7.4,5.4,7.7c0,0,0,0,0,0C5,7.7,4.7,7.8,4.3,7.8C4,7.9,3.7,7.9,3.4,8c0,0,0,0,0,0c0-0.1,0.1-0.2,0.1-0.3
	c0.1,0,0.1-0.1,0.1-0.2c0.1-0.1,0.2-0.1,0.2-0.2c0.2-0.2,0.3-0.7,0.4-1c0.1-0.4,0.3-0.7,0.3-1.1C4.5,4.9,4.5,4.7,4.5,4.5z M6.7,6.3
	C6.8,6.3,6.8,6.3,6.7,6.3C6.9,6.4,7,6.5,7.1,6.7c0,0.1,0,0.1,0.1,0.1C7.3,6.9,7.3,7,7.4,7.1c0,0-0.1,0.1-0.1,0.2
	c0,0.2,0,0.4-0.1,0.6c-0.1,0-0.2,0-0.2,0c-0.3,0-0.6-0.1-0.9-0.1c-0.1,0-0.2,0-0.3,0c0,0,0,0,0,0c0,0,0,0,0,0C6,7.7,6.1,7.5,6,7.4
	c0,0,0-0.1,0-0.1c0,0,0,0,0,0c0.2,0,0.2-0.2,0.1-0.3c0,0,0-0.1,0-0.1C6.3,6.6,6.5,6.3,6.5,6c0,0,0,0,0,0c0,0,0,0,0.1,0.1
	C6.6,6.2,6.6,6.3,6.7,6.3z M7.7,7.4C7.8,7.5,7.9,7.5,8,7.6c0,0.1,0,0.1,0.1,0.1c0,0,0,0,0,0c0,0-0.1,0-0.1,0c-0.1,0-0.2,0-0.3,0.1
	C7.7,7.7,7.7,7.5,7.7,7.4z M8.2,8.6C8.2,8.6,8.2,8.6,8.2,8.6C8.2,8.6,8.2,8.5,8.2,8.6C8.2,8.5,8.2,8.6,8.2,8.6z M8.1,8.2
	C8,8.3,8,8.3,7.9,8.3c0-0.1-0.1-0.2-0.1-0.2c0,0,0.1,0,0.1,0c0,0,0.1,0,0.1,0c0.1,0,0.1,0,0.1-0.1c0,0,0,0,0.1-0.1c0,0,0,0,0,0
	c0.1,0,0,0.1,0,0.1C8.1,8.1,8.1,8.2,8.1,8.2z M8.2,7.3C8.1,7.2,8,7.2,7.9,7.1C8,7,8.1,7,8.2,6.9c0.1,0,0.1-0.1,0.2-0.1
	c0,0.1,0,0.2-0.1,0.3C8.2,7.1,8.2,7.2,8.2,7.3z M7.7,8.9c0-0.1,0.1-0.1,0.2-0.2c0,0,0,0.1,0.1,0.1c0.1,0,0.2,0,0.2,0
	c0,0.1,0,0.1,0,0.2c0,0.2,0.1,0.5,0.1,0.7C8.2,9.7,8.1,9.6,7.9,9.6c-0.1,0-0.2,0-0.3,0c-0.1,0-0.2,0-0.3,0c0.1-0.1,0.2-0.3,0.3-0.4
	c0,0,0,0,0.1,0C7.7,9.2,7.8,9,7.7,8.9z M7.3,8.9C7.2,9,7.2,9.2,7.1,9.3C7,9.3,6.9,9.4,7,9.5c0,0,0,0,0,0c0,0,0,0,0,0
	C6.9,9.4,6.8,9.3,6.7,9.1C6.6,9,6.5,9,6.4,8.9c0-0.1-0.1-0.2-0.2-0.2c0-0.1-0.1-0.1-0.1-0.2c0-0.1,0-0.2-0.1-0.2c0,0,0,0,0,0
	C6,8.2,6,8.1,5.9,8c0.1,0,0.2,0,0.3,0c0,0.1,0.1,0.1,0.2,0.1c0.1,0,0.1,0,0.1-0.1c0,0,0.1,0,0.1,0c0,0.1,0.1,0.1,0.1,0.1
	c0.1,0,0.1,0,0.1-0.1c0.1,0,0.2,0,0.3,0c0.1,0,0.2,0,0.2,0c0,0,0,0.1,0.1,0.1c0.1,0.1,0.1,0.1,0.2,0.2C7.5,8.6,7.4,8.7,7.3,8.9z
	 M3.7,8.2c0,0,0.1,0,0.1,0c0.1,0,0.1,0,0.1-0.1c0.1,0,0.1,0,0.2,0c0,0,0.1,0.1,0.1,0.1c0.1,0,0.1,0,0.1-0.1c0.1,0,0.1,0,0.2,0
	c0,0.1,0.1,0.1,0.1,0.1c0.1,0,0.1-0.1,0.2-0.1c0,0,0.1,0,0.1,0c0,0.1,0.1,0.1,0.2,0.1c0.1,0,0.2-0.1,0.2-0.2c0.1,0,0.1,0,0.2,0
	c0,0,0,0,0,0.1c0.1,0.1,0.2,0.2,0.3,0.4C5.9,8.7,5.9,8.8,6,9c0.1,0.1,0.2,0.2,0.3,0.3c0,0,0,0.1,0,0.1c0,0,0.1,0,0.1,0
	c0.1,0.1,0.1,0.2,0.2,0.3c0,0,0,0,0,0c0,0,0,0,0,0c0,0,0,0-0.1,0c-0.1,0-0.2,0.1-0.2,0.2c-0.2,0.1-0.3,0.2-0.5,0.4
	c-0.2,0.2-0.3,0.4-0.5,0.6c-0.1-0.3-0.2-0.6-0.3-0.8C5.1,9.9,4.9,9.6,4.7,9.5C4.4,9.2,4.1,9,3.9,8.7c0-0.1,0-0.1-0.1-0.1
	C3.7,8.5,3.6,8.4,3.5,8.3C3.6,8.3,3.6,8.3,3.7,8.2z M5.8,11.1C5.8,11.1,5.8,11.1,5.8,11.1c0.1-0.1,0.2-0.1,0.2-0.2
	c0.1-0.1,0.2-0.3,0.4-0.4c0,0,0,0,0,0c0.1,0,0.2-0.1,0.2-0.2C6.7,10.3,6.9,10.1,7,10c0,0,0,0,0,0c0,0,0,0,0,0c0.3,0,0.5,0,0.7,0
	c0.1,0,0.2,0,0.3,0.1c0.1,0.1,0.2,0.1,0.3,0.1c0,0.2,0,0.4,0,0.6c0,0.3,0,0.6,0.1,0.9c0,0.1,0,0.1,0,0.2c0,0,0,0,0,0
	c0,0,0,0.1,0,0.1c-0.2-0.1-0.4-0.2-0.6-0.3c0,0-0.1-0.1-0.1-0.1c-0.1,0-0.2-0.1-0.3-0.1c0-0.1-0.1-0.1-0.2-0.1c0,0-0.1,0-0.1,0
	c-0.1,0-0.2,0-0.2-0.1c0-0.1-0.1-0.1-0.2-0.1c-0.1,0-0.1,0-0.1,0.1c-0.1,0-0.1,0-0.2,0c0,0-0.1,0-0.1,0c0,0,0,0,0,0
	c-0.1,0-0.2,0-0.4,0c0,0,0,0-0.1,0c0,0,0,0,0,0c0,0-0.1,0-0.1,0C5.7,11.2,5.7,11.2,5.8,11.1z M9.2,5.1c0.1,0,0.1,0,0.1-0.1
	c0.1,0,0.1,0.1,0.2,0.1c0,0,0,0,0.1,0c0,0.1,0.1,0.1,0.2,0.1c0,0,0.1,0,0.1,0c0.1,0,0.1,0,0.2,0.1c0,0,0.1,0.1,0.1,0.1
	c0,0,0,0,0.1,0c0.1,0,0.2,0,0.2,0.1c0,0,0.1,0,0.1,0c0,0,0,0,0,0c0,0,0.1,0,0.1,0c0,0,0,0.1,0,0.1c-0.1,0.1-0.1,0.1-0.2,0.2
	c-0.1,0.1-0.1,0.1-0.2,0.2c0,0,0,0,0,0c-0.1,0.1-0.2,0.2-0.3,0.3c0,0-0.1,0-0.1,0.1c0,0,0,0,0,0C9.9,6.5,9.8,6.5,9.7,6.6
	c0,0,0,0,0,0c-0.1,0-0.1,0.1-0.2,0.1c0,0,0,0,0,0c-0.2,0.1-0.3,0-0.5-0.1C8.9,6.6,8.8,6.6,8.7,6.6C8.6,6.3,8.5,6,8.5,5.7
	c0,0,0,0,0,0c0,0,0,0,0,0c0-0.2,0-0.3,0-0.5c0-0.1,0-0.1,0-0.2c0-0.1,0-0.2,0-0.3c0,0,0,0,0,0c0,0,0.1,0,0.1,0.1
	c0,0.1,0.1,0.2,0.2,0.2c0,0,0.1,0,0.1,0c0.1,0,0.2,0.1,0.2,0.1C9.1,5,9.1,5.1,9.2,5.1z M11.1,6.1c0,0.1,0.1,0.2,0.1,0.3
	c-0.1,0.1-0.1,0.3,0.1,0.3c0,0.1,0.1,0.2,0.1,0.3c0,0,0,0,0,0c0,0.1,0,0.1,0,0.2c0.1,0.2,0.1,0.4,0.2,0.5c-0.5,0-1,0.1-1.5,0.1
	c0,0,0,0,0,0C10,7.5,9.9,7.3,9.8,7.1c0,0,0,0,0-0.1c0.1-0.1,0.3-0.3,0.4-0.4c0.2-0.2,0.4-0.4,0.6-0.6c0.1-0.1,0.1-0.1,0.2-0.2
	c0,0,0,0,0,0C11,5.9,11,6,11.1,6.1z M8.6,7.4c0-0.1,0-0.3,0.1-0.4c0,0,0,0,0,0C8.9,6.9,9,7,9.2,7.1C9,7.3,8.8,7.4,8.6,7.6
	c0,0,0,0,0-0.1c0,0,0,0,0,0C8.6,7.5,8.6,7.5,8.6,7.4z M9.5,7.2c0.1,0.2,0.2,0.4,0.2,0.6c-0.3,0-0.6,0-0.9,0C9.1,7.6,9.3,7.4,9.5,7.2
	z M8.6,8.4C8.6,8.4,8.6,8.5,8.6,8.4C8.7,8.5,8.7,8.5,8.6,8.4C8.6,8.5,8.6,8.5,8.6,8.4C8.6,8.5,8.6,8.5,8.6,8.4z M8.8,8.2
	C8.9,8.2,8.9,8.2,8.8,8.2c0.1,0,0.1,0,0.1,0c0.1,0,0.2,0,0.3,0c0,0,0,0,0,0c0,0,0,0,0,0c0.1,0,0.1,0,0.2,0c0,0,0.1,0,0.1,0
	c0.1,0,0.1,0,0.1-0.1c0,0,0,0,0,0C9.7,8.3,9.5,8.6,9.5,8.8C9.3,8.6,9,8.4,8.8,8.2z M8.3,0.3C8.4,0.3,8.4,0.3,8.3,0.3
	c0.1,0,0.1,0,0.1,0c0.1,0.1,0.3,0.2,0.4,0.3c0,0.1,0.1,0.1,0.2,0.1c0,0,0,0,0,0c0.1,0,0.1,0.1,0.2,0.1C9.4,1,9.6,1,9.7,1.1
	c0,0,0.1,0,0.1,0c0,0,0,0,0,0c0.1,0,0.1,0.1,0.2,0.1c0,0,0,0,0.1,0c0,0.1,0.1,0.1,0.2,0.1c0,0,0.1,0,0.1,0c0.1,0.1,0.3,0.2,0.4,0.2
	c0.1,0.1,0.2,0.1,0.3,0.1c0,0,0.1,0.1,0.1,0.1c0,0,0,0,0,0c0.2,0.1,0.5,0.2,0.7,0.3c0,0.1,0.1,0.1,0.2,0.1c0,0,0.1,0,0.1,0
	c0.1,0,0.2,0.1,0.3,0.1c0,0.1,0,0.2,0.2,0.2c0,0,0.1,0,0.1,0c0,0,0,0,0.1,0c0,0.1,0.1,0.2,0.2,0.2c0,0,0,0,0,0
	c0.1,0.1,0.2,0.2,0.3,0.3c0,0,0,0-0.1,0.1c0,0,0,0,0,0c0-0.1-0.1-0.2-0.2-0.1c-0.1,0-0.1,0-0.2,0c0,0,0,0,0,0c0,0,0,0-0.1,0
	c0,0,0,0,0,0c0,0-0.1,0-0.1,0c0,0-0.1,0-0.1,0c-0.1,0-0.1,0-0.2,0c0,0-0.1-0.1-0.1-0.1c0,0-0.1,0-0.1,0c-0.1,0-0.2,0-0.3,0
	c0-0.1-0.1-0.1-0.1-0.1c-0.1,0-0.1,0-0.1,0.1c-0.1,0-0.2,0-0.3-0.1c0-0.1-0.1-0.1-0.1-0.1c0,0-0.1,0-0.1,0c-0.1,0-0.2-0.1-0.3-0.1
	c-0.2-0.1-0.5-0.1-0.7-0.2c0-0.1-0.1-0.1-0.2-0.1c-0.1,0-0.1,0-0.1,0.1c-0.1,0-0.1,0-0.2,0c-0.1,0-0.2-0.1-0.2-0.1
	C9.2,2.1,9.2,2,9.1,2c0,0,0,0,0,0C9.1,2,9,2,9,2C8.9,1.9,8.7,1.7,8.6,1.6c0,0-0.1,0-0.1,0C8.4,1.2,8.3,0.8,8.3,0.3z M8.3,2.9
	c0.1-0.1,0.1-0.2,0-0.3c0-0.1,0-0.1,0-0.2c0,0,0-0.1,0-0.1c0-0.1,0-0.2,0.1-0.3c0,0,0-0.1,0-0.1c0,0,0,0,0,0c0,0.1,0.1,0.1,0.2,0.1
	c0,0,0,0,0,0c0,0,0.1,0.1,0.1,0.1C9,2.4,9.2,2.5,9.3,2.5c0.3,0.1,0.6,0.2,1,0.3c0,0,0.1,0,0.1,0c0,0,0,0,0,0c0,0,0.1,0,0.1,0
	c0.8,0.2,1.6,0.4,2.5,0.3c0,0,0,0,0,0c0,0,0,0,0,0c0,0,0,0,0,0c-0.1,0-0.2,0.1-0.2,0.2c-0.1,0.1-0.2,0.2-0.3,0.3
	c-0.1,0-0.1,0.1-0.1,0.1C12.3,3.9,12.3,4,12.2,4c-0.2,0.2-0.4,0.3-0.5,0.5c-0.1,0.1-0.2,0.2-0.2,0.3c0,0-0.1,0.1-0.1,0.1
	c0,0.1-0.1,0.1-0.1,0.2c0,0,0,0,0,0C11,5.1,11,5.3,11,5.4c0,0,0,0,0,0c0,0,0,0,0,0c0.1-0.1,0-0.2-0.1-0.2C10.1,5,9.3,4.7,8.6,4.4
	c-0.1,0-0.1,0-0.2,0c0,0,0,0,0,0c0-0.2,0-0.3,0-0.5c0-0.2,0-0.3-0.1-0.5c0-0.1,0-0.1,0-0.2C8.3,3.1,8.3,3,8.3,2.9
	C8.3,2.9,8.3,2.9,8.3,2.9z M8.2,5.8c0,0.1,0,0.3,0.1,0.4c0,0,0,0.1,0,0.1c0,0,0,0,0,0.1c0,0,0,0-0.1,0.1c0,0.1-0.2,0.1-0.3,0.2
	C7.8,6.7,7.7,6.8,7.6,6.9c0,0,0,0,0,0C7.3,6.5,7.1,6.1,6.8,5.8c0,0,0,0-0.1-0.1c0.2-0.1,0.4-0.1,0.5-0.2c0,0,0,0,0,0
	c0.1,0,0.1,0,0.1-0.1c0.1,0,0.1-0.1,0.2-0.1c0.1-0.1,0.2-0.2,0.3-0.3C8,5,8,5,8.1,4.9C8.1,5.2,8.1,5.5,8.2,5.8z M8.1,2.1
	C8.1,2.4,8,2.7,8,3c0,0.3,0.1,0.6,0.1,0.9c0,0.2,0,0.4,0,0.5c0,0-0.1,0-0.1,0l0,0c-0.1,0-0.1,0.1-0.1,0.1c0,0-0.1,0.1-0.1,0.1
	c0,0,0,0,0,0C7.6,4.8,7.6,4.9,7.6,5C7.5,5,7.5,5.1,7.4,5.1C7.2,5.2,7,5.3,6.8,5.3c0,0-0.1,0-0.1,0c0,0-0.1,0-0.1,0
	c0,0-0.1,0-0.1,0.1c0,0-0.1-0.1-0.1-0.1c0,0,0,0,0,0c0,0-0.1-0.1-0.1-0.1C6,5,5.9,4.8,5.7,4.6C5.5,4.4,5.3,4.3,5.1,4.1
	C5,4,4.9,3.9,4.8,3.8c0.3-0.1,0.7-0.1,1-0.2c0.3-0.1,0.6-0.3,0.9-0.4c0.5-0.3,1-0.7,1.4-1.2C8.1,2,8.1,2.1,8.1,2.1z M3.5,2.2
	c0,0,0.1,0,0.1,0c0.1,0,0.1,0,0.1-0.1c0.1,0,0.3,0,0.4,0c0.2,0,0.4-0.1,0.6-0.2C5,1.8,5.2,1.7,5.4,1.6c0,0,0,0,0,0
	c0.1,0,0.1,0,0.1-0.1c0.1-0.1,0.2-0.1,0.4-0.2c0,0,0,0,0,0C6,1.4,6,1.4,6,1.3c0,0,0,0,0.1,0C6.7,1,7.5,0.9,8,0.3c0,0,0,0,0,0
	C7.9,0.4,7.9,0.6,8,0.7c0,0.1,0,0.2,0,0.3C8,1,8,1.1,8.1,1.2c0,0.1,0,0.2,0,0.4c0,0,0,0-0.1,0C8,1.7,8,1.7,7.9,1.8c0,0,0,0,0,0
	C7.7,1.8,7.7,1.9,7.7,2C7.6,2,7.6,2.1,7.5,2.1c0,0,0,0,0,0c-0.1,0-0.2,0.1-0.2,0.2C7.2,2.4,7.2,2.4,7.1,2.5C7,2.5,7,2.5,7,2.6
	C6.9,2.7,6.8,2.7,6.7,2.8c0,0,0,0-0.1,0C6.5,2.8,6.4,2.9,6.4,3C6.4,3,6.3,3,6.2,3.1c0,0-0.1,0-0.1,0C6.1,3.1,6,3.1,6,3.2
	c-0.1,0-0.2,0.1-0.2,0.1c0,0,0,0,0,0c0,0-0.1,0-0.1,0c-0.2,0-0.4,0.1-0.6,0.1c0,0,0,0-0.1,0c0,0-0.1,0-0.1,0c-0.1,0-0.1,0-0.2,0
	c0,0-0.1,0-0.1,0.1c0,0,0,0,0,0c0,0,0,0,0,0C4.5,3.4,4.4,3.4,4.3,3.3c0-0.1-0.1-0.1-0.1-0.2C4.1,3.1,4,2.9,4,2.8
	C3.8,2.6,3.7,2.4,3.5,2.2C3.5,2.2,3.5,2.2,3.5,2.2z M0.4,8.3C0.4,8.3,0.4,8.3,0.4,8.3C0.4,8.3,0.4,8.3,0.4,8.3
	C0.4,8.3,0.5,8.3,0.4,8.3C0.5,8.3,0.5,8.3,0.4,8.3C0.5,8.3,0.4,8.3,0.4,8.3z M0.6,8C0.6,8,0.6,8,0.6,8C0.6,8,0.6,8,0.6,8
	C0.7,8,0.8,7.8,0.8,7.7c0,0,0,0,0,0c0.1,0,0.2-0.1,0.2-0.2C1,7.4,1.1,7.4,1.1,7.3c0.1,0,0.1-0.1,0.1-0.2C1.2,7,1.3,7,1.3,6.9
	c0,0,0,0,0-0.1c0.1-0.1,0.2-0.3,0.2-0.4c0,0,0.1-0.1,0.1-0.1C1.7,6.2,1.8,6.1,1.9,6c0,0,0-0.1,0-0.2c0.3-0.6,0.6-1.2,0.9-1.8
	C3,3.8,3,3.5,3.1,3.2c0-0.3,0.2-0.5,0.2-0.8c0,0,0,0,0,0c0,0,0.1,0.1,0.1,0.1c0,0.1,0,0.2,0.2,0.2c0,0,0,0,0,0
	C3.6,2.8,3.6,2.9,3.7,3c0,0.1,0,0.1,0.1,0.2C3.9,3.3,4,3.5,4.2,3.6c0.1,0,0.1,0.1,0.2,0.1c0,0,0,0,0,0.1c0,0.1,0,0.1,0,0.2
	c-0.1,0-0.1,0.2-0.1,0.3c0,0.2-0.1,0.3-0.1,0.5c0,0,0,0.1,0,0.1c0,0,0,0,0,0.1c0,0.1,0,0.2,0,0.3c0,0,0,0,0,0c-0.2,0-0.2,0.3,0,0.3
	c0,0.1,0,0.1-0.1,0.2C4,5.9,4,6,4,6c0,0,0,0.1,0,0.1c0,0,0,0.1,0,0.1c-0.1,0-0.1,0.1-0.1,0.2c0,0.1,0,0.2-0.1,0.2c0,0,0,0,0,0.1
	c-0.1,0-0.1,0.1-0.1,0.1C3.6,7,3.6,7,3.5,7.1C3.2,7.3,3.1,7.6,3,7.9C3,7.9,3,8,3,8c0,0-0.1,0-0.1,0c0,0,0,0-0.1,0
	c-0.1,0-0.1,0-0.1,0c-0.1,0-0.1,0-0.2,0c0,0-0.1,0-0.1,0c0,0-0.1-0.1-0.1-0.1c-0.1,0-0.1,0-0.1,0.1c-0.1,0-0.2,0-0.3,0c0,0,0,0,0,0
	c0,0,0,0,0,0c-0.1,0-0.2,0-0.2,0c0,0,0,0-0.1,0c0,0-0.1,0-0.1,0c-0.1,0-0.2,0-0.3,0c0,0-0.1,0-0.1,0c0,0-0.1,0-0.1,0c0,0,0,0-0.1,0
	c0,0,0,0-0.1,0c0,0-0.1,0-0.1,0c0,0,0,0,0,0c0,0-0.1,0-0.1,0C0.6,8.2,0.6,8.1,0.6,8z M3.3,13.1C3.3,13.1,3.3,13.2,3.3,13.1
	c-0.1-0.1-0.1-0.3-0.2-0.4c0,0,0,0,0-0.1C3.1,12.5,3,12.4,3,12.2c0-0.1,0-0.2-0.1-0.2c0,0,0-0.1-0.1-0.1c-0.2-0.5-0.4-0.9-0.6-1.3
	C2.1,10.3,2,10.1,1.8,9.9C1.7,9.8,1.5,9.6,1.3,9.4C1.1,9.2,0.8,8.9,0.6,8.6c0,0,0,0,0,0c0.4,0,0.8,0,1.2-0.1c0,0,0,0,0,0
	c0.2,0,0.5,0,0.7-0.1c0.2,0,0.5-0.1,0.7-0.1c0,0,0.1,0.1,0.1,0.1c0,0.1,0,0.2,0.1,0.2c0,0,0,0,0,0C3.6,8.8,3.7,9,3.8,9.1
	c0,0.1,0,0.2,0.2,0.2c0,0,0,0,0,0c0,0,0.1,0.1,0.1,0.1c0,0.1,0,0.2,0.1,0.2c0,0,0.1,0,0.1,0c0.1,0.1,0.1,0.1,0.2,0.2
	C4.4,9.9,4.5,10,4.6,10c0.1,0,0.1,0,0.1,0c0,0,0,0.1,0.1,0.1c-0.1,0.1-0.1,0.3,0.1,0.3c0,0,0,0,0.1,0c0,0.1,0.1,0.2,0.1,0.3
	c-0.2,0-0.2,0.3,0,0.3c0,0,0.1,0,0.1,0c0,0,0,0.1,0,0.1c0,0,0,0.1,0.1,0.1c0,0,0,0,0,0c0,0,0,0.1,0,0.1c0,0,0,0.1-0.1,0.1
	c0,0-0.1,0-0.1,0c-0.2,0-0.2,0.2-0.1,0.3c0,0,0,0,0,0c0,0,0,0,0,0c0,0-0.1,0-0.1,0c-0.1,0-0.2,0.1-0.1,0.2c0,0,0,0-0.1,0
	c0,0,0,0-0.1,0c-0.1,0-0.2,0.1-0.2,0.2c0,0,0,0,0,0c-0.1,0.1-0.2,0.2-0.2,0.3c0,0,0,0,0,0.1c0,0,0,0-0.1,0c-0.1,0-0.2,0.1-0.2,0.2
	c0,0,0,0,0,0c-0.1,0-0.1,0.1-0.2,0.1c0,0,0,0,0,0c-0.1,0-0.1,0.1-0.2,0.1C3.4,13,3.4,13.1,3.3,13.1z M8.6,15.2
	c-0.3-0.2-0.6-0.4-1-0.6c-0.4-0.2-0.9-0.4-1.3-0.5c0,0,0,0,0,0c0,0-0.1,0-0.1,0c-0.1,0-0.1,0-0.2-0.1c0,0-0.1,0-0.1,0c0,0,0,0,0,0
	c-0.3-0.1-0.6-0.2-0.9-0.2c0,0-0.1-0.1-0.1-0.1c0,0-0.1,0-0.1,0c-0.1,0-0.2,0-0.4-0.1c0-0.1-0.1-0.1-0.1-0.1c0,0-0.1,0-0.1,0
	c-0.2,0-0.4-0.1-0.6-0.2c0,0,0,0,0,0c0.2-0.2,0.4-0.3,0.6-0.4c0.1-0.1,0.2-0.1,0.2-0.2c0.1-0.1,0.1-0.3,0.2-0.4
	c0.1-0.1,0.2-0.1,0.3-0.2C5,12.1,5.1,12,5.2,11.9c0.1-0.1,0.2-0.2,0.3-0.4c0,0,0.1,0.1,0.1,0.1c0.9,0,1.7,0.3,2.5,0.7c0,0,0,0,0.1,0
	c0.1,0.1,0.3,0.2,0.4,0.2c0,0.3,0,0.7,0,1c0,0.3,0,0.6,0,0.9c0,0.1,0,0.3,0,0.4C8.6,15,8.5,15.1,8.6,15.2z M8.6,9.7
	C8.6,9.7,8.6,9.7,8.6,9.7C8.6,9.5,8.5,9.3,8.5,9.2c0-0.1,0-0.2,0-0.3c0.1,0,0.2-0.1,0.3-0.1c0,0,0.1,0,0.1-0.1
	C9.1,8.9,9.2,9,9.4,9.2C9.2,9.3,9.1,9.4,8.9,9.5C8.8,9.6,8.7,9.6,8.6,9.7z M8.7,10.9c0-0.3,0-0.5,0-0.8c0,0,0.1,0,0.1-0.1
	C8.9,9.9,9,9.8,9.1,9.7c0.2-0.1,0.3-0.2,0.5-0.3c0,0,0,0,0,0c0.3,0.3,0.5,0.6,0.7,0.9c0.1,0.2,0.2,0.3,0.4,0.5c0,0,0,0-0.1,0
	c0,0,0,0-0.1,0c-0.1,0-0.1,0.1-0.2,0.1c0,0-0.1,0-0.1,0.1c0,0-0.1,0-0.1,0c-0.1,0-0.1,0.1-0.2,0.1c-0.1,0-0.1,0.1-0.2,0.1
	c-0.1,0-0.1,0-0.1,0.1c-0.1,0.1-0.2,0.1-0.3,0.2c0,0,0,0-0.1,0c-0.1,0-0.2,0.1-0.2,0.2c0,0-0.1,0-0.1,0c0,0-0.1,0-0.1,0.1
	c0,0,0,0,0,0c-0.1,0-0.1,0-0.1,0.1c0,0-0.1,0-0.1,0.1c0,0,0-0.1,0-0.1C8.8,11.5,8.7,11.2,8.7,10.9z M13.3,13.4c0,0-0.1,0-0.1,0
	c0,0-0.1,0-0.1,0c-0.3,0-0.5,0-0.8,0c0,0,0,0,0,0c0,0,0,0,0,0c0,0-0.1,0-0.1,0c-0.4,0.1-0.8,0.2-1.2,0.4c-0.4,0.2-0.8,0.3-1.1,0.6
	c-0.1,0.1-0.3,0.2-0.4,0.3c0,0,0,0-0.1,0C9.2,15,9,15.1,8.9,15.3c0,0,0,0,0,0c0-0.1,0-0.3,0-0.4c0-0.1,0-0.3,0-0.4
	c0-0.3,0-0.6,0-0.9c0-0.4,0-0.8,0-1.2c0,0,0.1,0,0.1-0.1C9,12.1,9.2,12,9.4,12c0.2-0.1,0.4-0.3,0.6-0.4c0.2-0.1,0.4-0.1,0.6-0.2
	c0.2-0.1,0.3-0.2,0.5-0.3c0.1,0.1,0.2,0.2,0.3,0.3c0.4,0.3,0.7,0.7,1.1,1.1c0.3,0.3,0.6,0.7,0.9,1C13.4,13.4,13.3,13.4,13.3,13.4z
	 M15.1,8.8C15,8.8,15,8.9,15,9c0,0,0,0.1-0.1,0.1c-0.1,0.2-0.2,0.5-0.4,0.7c-0.1,0-0.1,0.1-0.1,0.1c-0.1,0.2-0.2,0.4-0.3,0.6
	c-0.1,0.2-0.2,0.4-0.3,0.7c0,0.2,0,0.3-0.1,0.5c-0.2,0-0.2,0.3-0.1,0.3c0,0.1,0,0.1-0.1,0.2c-0.1,0-0.1,0.2-0.1,0.3c0,0,0,0,0,0.1
	c0,0.2,0,0.4,0,0.6c-0.6-0.7-1.2-1.3-1.8-1.9c-0.1-0.1-0.3-0.2-0.4-0.4c0,0,0-0.1,0-0.1c0-0.1-0.1-0.2-0.1-0.2c0,0,0,0,0,0
	c0.1-0.4,0.3-0.9,0.5-1.3c0.1-0.2,0.1-0.3,0.2-0.5C12,8.8,12,8.7,12,8.6c0.1-0.2,0.3-0.4,0.5-0.6c0,0,0,0,0,0c0,0,0,0,0,0
	c0,0,0.1,0.1,0.1,0.1c0.1,0,0.1,0,0.1-0.1c0.1,0,0.2,0,0.3,0c0,0,0,0,0.1,0c0,0,0,0,0.1,0c0.1,0,0.3,0,0.4,0c0.2,0,0.4,0,0.6,0
	c0,0,0.1,0,0.1,0c0.1,0,0.1,0,0.1-0.1c0.3,0,0.6,0,0.8,0.1c0.1,0,0.1,0,0.1,0c0.1,0,0.1,0,0.2,0C15.3,8.2,15.2,8.5,15.1,8.8z"/>
<path d="M16,7.9c0,0,0-0.1,0-0.1c0,0-0.1-0.1-0.1-0.1c0,0-0.1,0-0.1,0c-0.2-0.3-0.3-0.7-0.5-1c-0.1-0.2-0.2-0.3-0.4-0.4
	c-0.1-0.1-0.1-0.2-0.2-0.2c0-0.1,0-0.1-0.1-0.2c0,0,0,0,0-0.1c0,0,0-0.1-0.1-0.1c0.1-0.1,0.1-0.3-0.1-0.3c0,0,0,0,0,0
	c0-0.1-0.1-0.2-0.1-0.3c0,0,0-0.1,0-0.1c0-0.1-0.1-0.3-0.1-0.4c-0.1-0.5-0.3-0.9-0.4-1.4c0-0.1-0.1-0.1-0.1-0.1c0,0,0,0,0,0
	c0-0.1,0.1-0.1,0-0.2c-0.3-0.4-0.7-0.6-1.2-0.9C12.2,2,12,1.9,11.8,1.8c0,0-0.1,0-0.1,0c0,0,0,0,0,0c-0.2-0.1-0.5-0.2-0.7-0.3
	c-0.1,0-0.1-0.1-0.2-0.1c0,0-0.1-0.1-0.1-0.1c0,0,0,0,0,0c-0.1-0.1-0.2-0.1-0.4-0.2C10.1,1,10,1,9.8,0.9c0,0,0,0,0,0
	c-0.1,0-0.1-0.1-0.2-0.1C9.3,0.7,9.1,0.6,8.9,0.4C8.7,0.3,8.5,0.1,8.2-0.1C8.2-0.2,8-0.1,8-0.1c0,0-0.1,0-0.1,0.1
	C7.8,0.1,7.8,0.2,7.7,0.3c0,0,0,0-0.1,0c-0.1,0-0.2,0.1-0.2,0.2c-0.1,0-0.1,0.1-0.2,0.1c0,0-0.1-0.1-0.1-0.1C7,0.6,7,0.7,7,0.7
	c-0.1,0-0.1,0.1-0.2,0.1c0,0-0.1,0-0.1,0c-0.1,0-0.1,0.1-0.2,0.1C6.4,0.9,6.4,1,6.3,1c0,0,0,0,0,0C6.2,1,6.1,1,6.1,1.1
	C6,1.1,5.9,1.1,5.8,1.2c-0.3,0.1-0.7,0.3-1,0.5c0,0,0,0,0,0c-0.1,0-0.1,0-0.1,0.1c0,0,0,0,0,0c-0.1,0-0.2,0.1-0.3,0.1c0,0,0,0,0,0
	c0,0-0.1,0-0.1,0c-0.1,0-0.1,0-0.1,0.1c0,0-0.1,0-0.1,0C3.7,1.9,3.5,2,3.3,2c-0.1,0-0.1,0.1-0.1,0.1c0,0,0,0,0,0c0,0-0.1-0.1-0.1,0
	c0,0-0.1,0-0.1,0c0,0,0,0.1,0,0.1v0c0,0,0,0.1,0,0.1c0,0-0.1,0.1-0.1,0.1c0,0.1,0,0.2-0.1,0.4c0,0,0,0,0,0.1c0,0.1-0.1,0.3-0.1,0.4
	c0,0,0,0,0,0c0,0.1-0.1,0.1,0,0.2c0,0.1,0,0.1,0,0.2c0,0,0,0,0,0C2.5,3.8,2.5,3.9,2.5,4c0,0,0,0.1-0.1,0.1c0,0,0,0,0,0h0
	c0,0-0.1,0-0.1,0c0,0,0,0.1,0,0.1c0,0,0,0.1,0,0.1C2.3,4.6,2.2,4.7,2.1,4.8C2.1,4.8,2,4.9,2,5C2,5.1,1.9,5.2,1.9,5.3
	c-0.1,0-0.1,0.1-0.1,0.2C1.7,5.6,1.7,5.8,1.6,5.9c0,0,0,0.1,0,0.1C1.3,6.4,1.1,6.7,0.9,7.1C0.8,7.4,0.6,7.5,0.4,7.7
	C0.3,7.8,0.2,8,0.2,8.2c0,0,0,0.1,0,0.1c0,0-0.1,0-0.1,0C0,8.4,0,8.4,0,8.5c0,0,0,0.1,0,0.1c0,0,0,0,0,0c0,0,0,0,0,0c0,0,0,0,0,0
	c0,0,0.1,0,0.1,0c0,0.1,0.1,0.1,0.1,0.2c0,0.1,0,0.2,0.1,0.2c0,0.1,0.1,0.1,0.1,0.2c0,0.1,0,0.1,0.1,0.2c0.1,0.1,0.1,0.2,0.2,0.2
	c0,0.1,0.1,0.2,0.2,0.2c0,0,0,0,0,0c0,0,0.1,0.1,0.1,0.1c0,0.1,0,0.2,0.1,0.2c0,0,0.1,0,0.1,0c0,0,0,0,0.1,0.1c0,0,0.1,0.1,0.1,0.2
	c0,0.1,0,0.2,0.1,0.2c0,0.1,0.1,0.1,0.1,0.2c-0.1,0.1,0,0.3,0.1,0.3c0,0,0,0,0,0c0,0,0,0,0,0.1c0,0.1,0,0.2,0.1,0.2
	c0,0,0,0.1,0.1,0.1c0,0.1,0,0.1,0.1,0.2c0,0.1,0.1,0.1,0.1,0.2c0,0.1,0,0.2,0.1,0.2c0,0,0,0.1,0,0.1c0.2,0.4,0.3,0.9,0.5,1.3
	c0,0.1,0,0.2,0.1,0.2c0.1,0.1,0.1,0.1,0.2,0.1c0,0,0,0,0,0c0.1,0,0.2,0.1,0.3,0.1c0,0,0.1,0.1,0.1,0.1c0,0,0,0,0.1,0
	c0.3,0.1,0.5,0.1,0.8,0.2c0.2,0,0.3,0.1,0.5,0.1c0,0,0.1,0.1,0.1,0.1c0,0,0.1,0,0.1,0c0.2,0.1,0.4,0.1,0.6,0.2
	c0.1,0,0.3,0.1,0.4,0.2c0,0,0.1,0,0.1,0c0,0,0,0,0,0c0.1,0,0.2,0.1,0.3,0.1C6.8,14.9,6.9,15,7,15c0,0,0.1,0,0.1,0c0,0,0,0,0.1,0
	c0,0.1,0.1,0.2,0.2,0.2c0,0,0.1,0,0.1,0c0.1,0,0.1,0.1,0.2,0.1c0,0.1,0,0.2,0.2,0.2c0,0,0.1,0,0.1,0c0.1,0,0.1,0.1,0.2,0.1
	c0,0.1,0.1,0.2,0.2,0.2c0,0,0,0,0.1,0c0.1,0,0.1,0.1,0.2,0.2c0,0,0.1,0,0.1,0c0,0,0.1,0.1,0.1,0.1c0,0,0,0,0.1,0c0,0,0.1,0,0.1,0
	c0.1-0.1,0.2-0.1,0.3-0.2c0.1,0,0.1-0.1,0.1-0.1c0.2-0.2,0.4-0.3,0.5-0.5c0,0,0,0,0,0c0.1,0,0.1-0.1,0.2-0.1c0,0,0.1-0.1,0.1-0.1
	c0,0,0.1,0,0.1,0c0.1,0,0.2-0.1,0.2-0.2c0.1-0.1,0.2-0.1,0.3-0.1c0,0,0,0,0.1,0c0.1,0,0.1-0.1,0.2-0.1c0.1,0,0.1,0,0.2-0.1
	c0,0,0.1,0,0.1,0c0,0,0,0,0,0c0.1,0,0.1,0,0.1-0.1c0.1,0,0.2-0.1,0.3-0.1c0,0,0.1,0,0.1,0c0.1,0,0.1,0,0.1-0.1
	c0.1,0,0.3-0.1,0.5-0.1c0.1,0,0.3,0,0.4,0c0,0,0,0,0,0c0,0,0,0,0,0c0.3,0,0.6,0,0.8,0c0,0,0,0,0.1,0c0.1,0.1,0.3,0,0.2-0.2
	c0,0,0,0,0,0c0,0,0-0.1,0-0.1c0,0,0,0,0,0c0,0,0,0,0-0.1c0-0.1,0-0.2,0-0.3c0,0,0-0.1,0-0.1c0-0.1,0-0.2,0-0.3
	c0-0.2,0.1-0.4,0.2-0.6c0.1-0.2,0.1-0.5,0.1-0.7c0-0.1,0-0.1,0-0.2c0.1,0,0.1-0.1,0.1-0.2c0-0.1,0.1-0.1,0.1-0.2
	c0.1,0,0.1-0.1,0.1-0.2c0.2-0.4,0.4-0.8,0.6-1.2c0.1-0.2,0.2-0.5,0.4-0.7c0,0,0,0,0,0c0.1-0.1,0.1-0.2,0.2-0.3c0,0,0,0,0,0
	c0,0,0.1,0,0.1-0.1c0,0,0-0.1,0-0.1c0,0,0,0,0-0.1c0,0,0,0,0,0C16,8.1,16,8.1,16,8C16,8,16,7.9,16,7.9z M13.4,3.6
	c-0.1,0.1-0.1,0.3,0.1,0.3c0,0,0,0.1,0,0.1c-0.1,0.1,0,0.2,0.1,0.3c0,0.1,0,0.2,0.1,0.3c-0.1,0.1,0,0.3,0.1,0.3
	C13.9,5.2,14,5.6,14.2,6c0.1,0.2,0.2,0.3,0.3,0.5c0.1,0.1,0.1,0.1,0.2,0.2c0,0.1,0.1,0.1,0.1,0.1c0,0,0.1,0.1,0.1,0.1
	c0,0,0,0.1,0.1,0.1c0,0.1,0,0.2,0.1,0.2c0.1,0.1,0.1,0.2,0.2,0.3c0,0,0,0,0,0.1c0,0,0,0.1,0.1,0.1c0,0,0.1,0.1,0.1,0.1
	c0,0-0.1,0-0.1,0c0,0,0,0,0,0c0,0,0,0-0.1,0c0,0-0.1,0-0.1,0c-0.1,0-0.2,0-0.2,0c0,0,0,0-0.1,0c0,0,0,0,0,0c-0.4,0-0.7,0-1.1,0.1
	c0,0,0,0-0.1,0c0,0-0.1,0-0.1,0c-0.5,0-1,0-1.5,0c0,0,0-0.1-0.1-0.1c0,0-0.1-0.1-0.1-0.1c0-0.1,0-0.1-0.1-0.1c0,0,0-0.1,0-0.1
	l-0.2-0.5c-0.1-0.3-0.2-0.7-0.4-1c0,0,0,0,0,0c0.1-0.1,0.1-0.1,0.2-0.2c0.2-0.2,0.3-0.5,0.5-0.7c0,0,0,0,0,0c0,0,0,0,0,0
	C12,4.9,12,4.8,12,4.7c0,0,0.1-0.1,0.1-0.1c0.1,0,0.1-0.1,0.1-0.1c0,0,0.1,0,0.1-0.1c0.4-0.3,0.7-0.6,1-1
	C13.4,3.5,13.4,3.5,13.4,3.6z M11.3,9.4c0,0.1-0.1,0.2-0.1,0.2c0,0,0,0,0,0c-0.2,0-0.2,0.3-0.1,0.3c0,0.1,0,0.1-0.1,0.2
	c-0.2,0-0.2,0.2-0.1,0.3c0,0.1-0.1,0.2-0.1,0.2c-0.1-0.1-0.2-0.2-0.2-0.3c-0.2-0.4-0.5-0.7-0.8-1.1c0,0-0.1-0.1-0.1-0.1
	c0-0.3,0.2-0.6,0.3-0.8c0,0,0-0.1,0-0.1c0,0,0,0,0,0c0,0,0.1,0,0.1,0c0.2,0,0.3,0,0.5-0.1c0,0.1,0.1,0.1,0.1,0.1
	c0.1,0,0.1-0.1,0.2-0.1c0,0,0.1,0,0.1,0c0,0.1,0.1,0.1,0.2,0.1c0.1,0,0.2-0.1,0.2-0.2c0.1,0,0.3,0,0.4,0c0,0,0,0,0,0c0,0,0,0,0,0
	c-0.2,0.3-0.4,0.6-0.6,1C11.3,9.2,11.3,9.3,11.3,9.4z M4.5,4.7c0-0.2,0.1-0.3,0.1-0.5c0,0.1,0,0.1,0.1,0.1c0,0,0.1,0.1,0.1,0.1
	C4.8,4.5,4.9,4.6,5,4.7c0,0.1,0.1,0.1,0.2,0.1c0,0,0,0,0,0c0.1,0,0.1,0.1,0.2,0.1C5.4,5,5.5,5,5.6,5.1c0,0.1,0,0.2,0.1,0.2
	c0,0,0,0,0.1,0c0.1,0.1,0.1,0.1,0.2,0.2C6,5.6,6.1,5.7,6.2,5.8c0,0.1,0,0.1,0,0.2C6,6,6,6.2,6.1,6.3C6.1,6.5,6,6.7,5.9,6.9
	C5.8,7.3,5.6,7.6,5.4,7.8c0,0,0,0,0,0C5,7.9,4.6,7.9,4.3,8C4,8,3.7,8,3.4,8.1c0,0,0,0,0,0c0-0.1,0.1-0.2,0.1-0.3
	c0.1,0,0.1-0.1,0.1-0.2c0.1-0.1,0.2-0.1,0.2-0.2c0.2-0.2,0.3-0.7,0.4-1C4.3,6,4.5,5.7,4.5,5.3C4.5,5.1,4.4,4.9,4.5,4.7z M6.7,6.4
	C6.7,6.4,6.7,6.4,6.7,6.4C6.8,6.5,6.9,6.7,7,6.8c0,0.1,0,0.1,0.1,0.1c0.1,0.1,0.2,0.2,0.3,0.3c0,0-0.1,0.1-0.1,0.2
	c0,0.2,0,0.4-0.1,0.6C7.1,8,7.1,8,7,8C6.7,8,6.4,7.9,6.1,7.9c-0.1,0-0.2,0-0.3,0c0,0,0,0,0,0c0,0,0,0,0,0C6,7.8,6,7.6,6,7.5
	c0,0,0-0.1,0-0.1c0,0,0,0,0,0c0.2,0,0.2-0.2,0.1-0.3c0,0,0-0.1,0-0.1c0.1-0.3,0.3-0.6,0.3-0.9c0,0,0,0,0,0c0,0,0,0,0.1,0.1
	C6.5,6.3,6.6,6.4,6.7,6.4z M7.7,7.5C7.8,7.6,7.9,7.7,8,7.7C8,7.8,8,7.8,8,7.9c0,0,0,0,0,0c0,0-0.1,0-0.1,0c-0.1,0-0.2,0-0.3,0.1
	C7.7,7.8,7.7,7.7,7.7,7.5z M8.2,8.7C8.2,8.7,8.2,8.7,8.2,8.7C8.2,8.7,8.2,8.7,8.2,8.7C8.2,8.7,8.2,8.7,8.2,8.7z M8,8.4
	C8,8.4,7.9,8.4,7.9,8.5c0-0.1-0.1-0.2-0.1-0.2c0,0,0.1,0,0.1,0c0,0,0.1,0,0.1,0c0.1,0,0.1,0,0.1-0.1c0,0,0,0,0.1-0.1c0,0,0,0,0,0
	c0.1,0,0,0.1,0,0.1C8.1,8.3,8.1,8.3,8,8.4z M8.1,7.4C8,7.4,7.9,7.3,7.9,7.2C8,7.2,8.1,7.1,8.2,7.1C8.2,7,8.3,7,8.3,6.9
	c0,0.1,0,0.2-0.1,0.3C8.2,7.2,8.1,7.3,8.1,7.4z M7.7,9.1C7.7,9,7.8,9,7.8,8.9c0,0,0,0.1,0.1,0.1c0.1,0,0.2,0,0.2,0
	c0,0.1,0,0.1,0,0.2c0,0.2,0.1,0.5,0.1,0.7C8.2,9.9,8,9.8,7.9,9.8c-0.1,0-0.2,0-0.3,0c-0.1,0-0.2,0-0.3,0c0.1-0.1,0.2-0.3,0.3-0.4
	c0,0,0,0,0.1,0C7.7,9.3,7.7,9.2,7.7,9.1z M7.3,9C7.2,9.1,7.1,9.3,7,9.4c-0.1,0-0.1,0.1-0.1,0.2c0,0,0,0,0,0c0,0,0,0,0,0
	C6.8,9.5,6.8,9.4,6.7,9.3C6.6,9.2,6.5,9.1,6.4,9c0-0.1-0.1-0.2-0.2-0.2c0-0.1-0.1-0.1-0.1-0.2c0-0.1,0-0.2-0.1-0.2c0,0,0,0,0,0
	C6,8.4,5.9,8.3,5.9,8.2c0.1,0,0.2,0,0.3,0c0,0.1,0.1,0.1,0.2,0.1c0.1,0,0.1,0,0.1-0.1c0,0,0.1,0,0.1,0c0,0.1,0.1,0.1,0.1,0.1
	c0.1,0,0.1,0,0.1-0.1c0.1,0,0.2,0,0.3,0c0.1,0,0.2,0,0.2,0c0,0,0,0.1,0.1,0.1c0.1,0.1,0.1,0.1,0.2,0.2C7.5,8.8,7.4,8.9,7.3,9z
	 M3.7,8.4c0,0,0.1,0,0.1,0c0.1,0,0.1,0,0.1-0.1c0.1,0,0.1,0,0.2,0c0,0,0.1,0.1,0.1,0.1c0.1,0,0.1,0,0.1-0.1c0.1,0,0.1,0,0.2,0
	c0,0.1,0.1,0.1,0.1,0.1c0.1,0,0.1-0.1,0.2-0.1c0,0,0.1,0,0.1,0C5,8.3,5,8.4,5.1,8.4c0.1,0,0.2-0.1,0.2-0.2c0.1,0,0.1,0,0.2,0
	c0,0,0,0,0,0.1c0.1,0.1,0.2,0.2,0.3,0.4C5.9,8.8,5.9,9,6,9.1c0.1,0.1,0.2,0.2,0.3,0.3c0,0,0,0.1,0,0.1c0,0,0.1,0,0.1,0
	c0.1,0.1,0.1,0.2,0.2,0.3c0,0,0,0,0,0c0,0,0,0,0,0c0,0,0,0-0.1,0c-0.1,0-0.2,0.1-0.2,0.2c-0.2,0.1-0.3,0.2-0.5,0.4
	c-0.2,0.2-0.3,0.4-0.5,0.6c-0.1-0.3-0.2-0.6-0.3-0.8C5,10,4.8,9.8,4.6,9.6C4.4,9.3,4.1,9.1,3.9,8.8c0-0.1,0-0.1-0.1-0.1
	C3.7,8.6,3.6,8.5,3.5,8.4C3.6,8.4,3.6,8.4,3.7,8.4z M5.7,11.3C5.8,11.2,5.8,11.2,5.7,11.3c0.1-0.1,0.2-0.1,0.2-0.2
	c0.1-0.1,0.2-0.3,0.4-0.4c0,0,0,0,0,0c0.1,0,0.2-0.1,0.2-0.2c0.2-0.1,0.4-0.3,0.5-0.4c0,0,0,0,0,0c0,0,0,0,0,0c0.3,0,0.5,0,0.7,0
	c0.1,0,0.2,0,0.3,0.1c0.1,0.1,0.2,0.1,0.3,0.1c0,0.2,0,0.4,0,0.6c0,0.3,0,0.6,0.1,0.9c0,0.1,0,0.1,0,0.2c0,0,0,0,0,0
	c0,0,0,0.1,0,0.1C8.2,12.1,8,12,7.8,11.9c0,0-0.1-0.1-0.1-0.1c-0.1,0-0.2-0.1-0.3-0.1c0-0.1-0.1-0.1-0.2-0.1c0,0-0.1,0-0.1,0
	c-0.1,0-0.2,0-0.2-0.1c0-0.1-0.1-0.1-0.2-0.1c-0.1,0-0.1,0-0.1,0.1c-0.1,0-0.1,0-0.2,0c0,0-0.1,0-0.1,0c0,0,0,0,0,0
	c-0.1,0-0.2,0-0.4,0c0,0,0,0-0.1,0c0,0,0,0,0,0c0,0-0.1,0-0.1,0C5.7,11.3,5.7,11.3,5.7,11.3z M9.2,5.3c0.1,0,0.1,0,0.1-0.1
	c0.1,0,0.1,0.1,0.2,0.1c0,0,0,0,0.1,0c0,0.1,0.1,0.1,0.2,0.1c0,0,0.1,0,0.1,0c0.1,0,0.1,0,0.2,0.1c0,0,0.1,0.1,0.1,0.1
	c0,0,0,0,0.1,0c0.1,0,0.2,0,0.2,0.1c0,0,0.1,0,0.1,0c0,0,0,0,0,0c0,0,0.1,0,0.1,0c0,0,0,0.1,0,0.1c-0.1,0.1-0.1,0.1-0.2,0.2
	C10.4,6,10.4,6,10.3,6.1c0,0,0,0,0,0c-0.1,0.1-0.2,0.2-0.3,0.3c0,0-0.1,0-0.1,0.1c0,0,0,0,0,0C9.8,6.6,9.8,6.7,9.7,6.7c0,0,0,0,0,0
	c-0.1,0-0.1,0.1-0.2,0.1c0,0,0,0,0,0C9.3,6.9,9.2,6.9,9,6.8C8.9,6.8,8.8,6.7,8.6,6.7C8.6,6.4,8.5,6.1,8.5,5.8c0,0,0,0,0,0
	c0,0,0,0,0,0c0-0.2,0-0.3,0-0.5c0-0.1,0-0.1,0-0.2c0-0.1,0-0.2,0-0.3c0,0,0,0,0,0c0,0,0.1,0,0.1,0.1C8.5,4.9,8.6,5,8.7,5
	c0,0,0.1,0,0.1,0C8.9,5,9,5,9,5.1C9,5.2,9.1,5.3,9.2,5.3z M11,6.2c0,0.1,0.1,0.2,0.1,0.3c-0.1,0.1-0.1,0.3,0.1,0.3
	c0,0.1,0.1,0.2,0.1,0.3c0,0,0,0,0,0c0,0.1,0,0.1,0,0.2c0.1,0.2,0.1,0.4,0.2,0.5c-0.5,0-1,0.1-1.5,0.1c0,0,0,0,0,0
	C9.9,7.7,9.8,7.4,9.8,7.2c0,0,0,0,0-0.1C9.9,7,10,6.9,10.1,6.8c0.2-0.2,0.4-0.4,0.6-0.6C10.8,6.1,10.9,6,11,6c0,0,0,0,0,0
	C10.9,6.1,11,6.2,11,6.2z M8.6,7.5c0-0.1,0-0.3,0.1-0.4c0,0,0,0,0,0c0.2,0,0.4,0.1,0.5,0.2C9,7.4,8.8,7.6,8.6,7.8c0,0,0,0,0-0.1
	c0,0,0,0,0,0C8.6,7.7,8.6,7.6,8.6,7.5z M9.5,7.4c0.1,0.2,0.2,0.4,0.2,0.6C9.4,8,9.1,8,8.8,8C9,7.8,9.3,7.6,9.5,7.4z M8.6,8.6
	C8.6,8.6,8.6,8.6,8.6,8.6C8.6,8.6,8.6,8.6,8.6,8.6C8.6,8.6,8.6,8.6,8.6,8.6C8.6,8.6,8.6,8.6,8.6,8.6z M8.8,8.3
	C8.8,8.3,8.8,8.3,8.8,8.3c0.1,0,0.1,0,0.1,0c0.1,0,0.2,0,0.3,0c0,0,0,0,0,0c0,0,0,0,0,0c0.1,0,0.1,0,0.2,0c0,0,0.1,0,0.1,0
	c0.1,0,0.1,0,0.1-0.1c0,0,0,0,0,0C9.6,8.5,9.5,8.7,9.4,8.9C9.2,8.7,9,8.5,8.8,8.3z M8.3,0.5C8.3,0.5,8.4,0.5,8.3,0.5
	c0.1,0,0.1,0,0.1,0c0.1,0.1,0.3,0.2,0.4,0.3C8.9,0.9,8.9,1,9,1c0,0,0,0,0,0C9.1,1,9.2,1,9.3,1.1c0.1,0.1,0.3,0.1,0.4,0.2
	c0,0,0.1,0,0.1,0c0,0,0,0,0,0c0.1,0,0.1,0.1,0.2,0.1c0,0,0,0,0.1,0c0,0.1,0.1,0.1,0.2,0.1c0,0,0.1,0,0.1,0c0.1,0.1,0.3,0.2,0.4,0.2
	c0.1,0.1,0.2,0.1,0.3,0.1c0,0,0.1,0.1,0.1,0.1c0,0,0,0,0,0c0.2,0.1,0.5,0.2,0.7,0.3c0,0.1,0.1,0.1,0.2,0.1c0,0,0.1,0,0.1,0
	c0.1,0,0.2,0.1,0.3,0.1c0,0.1,0,0.2,0.2,0.2c0,0,0.1,0,0.1,0c0,0,0,0,0.1,0c0,0.1,0.1,0.2,0.2,0.2c0,0,0,0,0,0
	C13,2.8,13.1,2.9,13.2,3c0,0,0,0-0.1,0.1c0,0,0,0,0,0C13.1,3.1,13.1,3,13,3c-0.1,0-0.1,0-0.2,0c0,0,0,0,0,0c0,0,0,0-0.1,0
	c0,0,0,0,0,0c0,0-0.1,0-0.1,0c0,0-0.1,0-0.1,0c-0.1,0-0.1,0-0.2,0c0,0-0.1-0.1-0.1-0.1c0,0-0.1,0-0.1,0c-0.1,0-0.2,0-0.3,0
	c0-0.1-0.1-0.1-0.1-0.1c-0.1,0-0.1,0-0.1,0.1c-0.1,0-0.2,0-0.3-0.1c0-0.1-0.1-0.1-0.1-0.1c0,0-0.1,0-0.1,0c-0.1,0-0.2-0.1-0.3-0.1
	c-0.2-0.1-0.5-0.1-0.7-0.2c0-0.1-0.1-0.1-0.2-0.1c-0.1,0-0.1,0-0.1,0.1c-0.1,0-0.1,0-0.2,0c-0.1,0-0.2-0.1-0.2-0.1
	c0-0.1-0.1-0.1-0.1-0.1c0,0,0,0,0,0C9,2.2,9,2.1,9,2.1C8.8,2,8.7,1.9,8.5,1.8c0,0-0.1,0-0.1,0C8.4,1.3,8.3,0.9,8.3,0.5z M8.3,3.1
	c0.1-0.1,0.1-0.2,0-0.3c0-0.1,0-0.1,0-0.2c0,0,0-0.1,0-0.1c0-0.1,0-0.2,0.1-0.3c0,0,0-0.1,0-0.1c0,0,0,0,0,0c0,0.1,0.1,0.1,0.2,0.1
	c0,0,0,0,0,0c0,0,0.1,0.1,0.1,0.1C9,2.5,9.1,2.6,9.3,2.7c0.3,0.1,0.6,0.2,1,0.3c0,0,0.1,0,0.1,0c0,0,0,0,0,0c0,0,0.1,0,0.1,0
	c0.8,0.2,1.6,0.4,2.5,0.3c0,0,0,0,0,0c0,0,0,0,0,0c0,0,0,0,0,0c-0.1,0-0.2,0.1-0.2,0.2c-0.1,0.1-0.2,0.2-0.3,0.3
	c-0.1,0-0.1,0.1-0.1,0.1c-0.1,0.1-0.2,0.1-0.3,0.2c-0.2,0.2-0.4,0.3-0.5,0.5c-0.1,0.1-0.2,0.2-0.2,0.3c0,0-0.1,0.1-0.1,0.1
	c0,0.1-0.1,0.1-0.1,0.2c0,0,0,0,0,0C11,5.3,11,5.4,11,5.5c0,0,0,0,0,0c0,0,0,0,0,0c0.1-0.1,0-0.2-0.1-0.2C10,5.1,9.3,4.8,8.6,4.5
	c-0.1,0-0.1,0-0.2,0c0,0,0,0,0,0c0-0.2,0-0.3,0-0.5c0-0.2,0-0.3-0.1-0.5c0-0.1,0-0.1,0-0.2C8.3,3.3,8.3,3.2,8.3,3.1
	C8.3,3.1,8.3,3.1,8.3,3.1z M8.1,5.9c0,0.1,0,0.3,0.1,0.4c0,0,0,0.1,0,0.1c0,0,0,0,0,0.1c0,0,0,0-0.1,0.1c0,0.1-0.2,0.1-0.3,0.2
	C7.8,6.9,7.7,6.9,7.6,7c0,0,0,0,0,0C7.3,6.6,7.1,6.2,6.7,5.9c0,0,0,0-0.1-0.1C6.8,5.8,7,5.7,7.2,5.7c0,0,0,0,0,0
	c0.1,0,0.1,0,0.1-0.1c0.1,0,0.1-0.1,0.2-0.1c0.1-0.1,0.2-0.2,0.3-0.3C7.9,5.2,8,5.1,8.1,5C8.1,5.3,8.1,5.6,8.1,5.9z M8.1,2.2
	C8,2.5,7.9,2.8,7.9,3.1C8,3.5,8,3.8,8.1,4.1c0,0.2,0,0.4,0,0.5c0,0-0.1,0-0.1,0l0,0c-0.1,0-0.1,0.1-0.1,0.1c0,0-0.1,0.1-0.1,0.1
	c0,0,0,0,0,0C7.6,5,7.5,5,7.5,5.1C7.5,5.1,7.4,5.2,7.4,5.2C7.2,5.3,7,5.4,6.7,5.5c0,0-0.1,0-0.1,0c0,0-0.1,0-0.1,0
	c0,0-0.1,0-0.1,0.1c0,0-0.1-0.1-0.1-0.1c0,0,0,0,0,0c0,0-0.1-0.1-0.1-0.1C6,5.1,5.9,4.9,5.7,4.7C5.5,4.6,5.2,4.4,5.1,4.2
	C5,4.1,4.9,4,4.8,3.9c0.3-0.1,0.7-0.1,1-0.2c0.3-0.1,0.6-0.3,0.9-0.4c0.5-0.3,1-0.7,1.4-1.2C8.1,2.2,8.1,2.2,8.1,2.2z M3.5,2.3
	c0,0,0.1,0,0.1,0c0.1,0,0.1,0,0.1-0.1c0.1,0,0.3,0,0.4,0c0.2,0,0.4-0.1,0.6-0.2c0.2-0.1,0.4-0.2,0.6-0.3c0,0,0,0,0,0
	c0.1,0,0.1,0,0.1-0.1c0.1-0.1,0.2-0.1,0.4-0.2c0,0,0,0,0,0c0.1,0,0.1,0,0.1-0.1c0,0,0,0,0.1,0C6.7,1.2,7.5,1,8,0.4c0,0,0,0,0,0
	C7.9,0.5,7.9,0.7,8,0.8C8,0.9,8,1,8,1.1C8,1.1,8,1.3,8.1,1.3c0,0.1,0,0.2,0,0.4c0,0,0,0-0.1,0C8,1.8,7.9,1.9,7.9,1.9c0,0,0,0,0,0
	C7.7,1.9,7.7,2,7.7,2.1C7.6,2.2,7.5,2.2,7.5,2.3c0,0,0,0,0,0c-0.1,0-0.2,0.1-0.2,0.2C7.2,2.5,7.1,2.6,7.1,2.6C7,2.6,7,2.7,6.9,2.7
	C6.8,2.8,6.7,2.9,6.6,3c0,0,0,0-0.1,0C6.4,2.9,6.4,3,6.4,3.1c-0.1,0-0.1,0.1-0.2,0.1c0,0-0.1,0-0.1,0C6,3.2,6,3.3,6,3.3
	c-0.1,0-0.2,0.1-0.2,0.1c0,0,0,0,0,0c0,0-0.1,0-0.1,0C5.4,3.5,5.2,3.5,5,3.5c0,0,0,0-0.1,0c0,0-0.1,0-0.1,0c-0.1,0-0.1,0-0.2,0
	c0,0-0.1,0-0.1,0.1c0,0,0,0,0,0c0,0,0,0,0,0C4.5,3.6,4.4,3.5,4.3,3.5c0-0.1-0.1-0.1-0.1-0.2C4.1,3.2,4,3.1,3.9,2.9
	C3.8,2.7,3.6,2.5,3.5,2.3C3.5,2.4,3.5,2.3,3.5,2.3z M0.4,8.5C0.4,8.5,0.4,8.5,0.4,8.5C0.4,8.5,0.4,8.5,0.4,8.5
	C0.4,8.4,0.4,8.4,0.4,8.5C0.4,8.4,0.4,8.4,0.4,8.5C0.4,8.4,0.4,8.5,0.4,8.5z M0.5,8.2C0.5,8.2,0.5,8.1,0.5,8.2
	C0.6,8.1,0.6,8.1,0.5,8.2C0.7,8.1,0.8,8,0.7,7.9c0,0,0,0,0,0c0.1,0,0.2-0.1,0.2-0.2C1,7.6,1,7.5,1.1,7.4c0.1,0,0.1-0.1,0.1-0.2
	c0-0.1,0.1-0.1,0.1-0.2c0,0,0,0,0-0.1c0.1-0.1,0.2-0.3,0.2-0.4c0,0,0.1-0.1,0.1-0.1c0.1-0.1,0.2-0.3,0.3-0.4c0,0,0-0.1,0-0.2
	c0.3-0.6,0.6-1.2,0.9-1.8C2.9,3.9,3,3.7,3,3.4c0-0.3,0.2-0.5,0.2-0.8c0,0,0,0,0,0c0,0,0.1,0.1,0.1,0.1c0,0.1,0,0.2,0.2,0.2
	c0,0,0,0,0,0C3.6,3,3.6,3,3.7,3.1c0,0.1,0,0.1,0.1,0.2C3.9,3.5,4,3.6,4.2,3.8c0.1,0,0.1,0.1,0.2,0.1c0,0,0,0,0,0.1
	c0,0.1,0,0.1,0,0.2c-0.1,0-0.1,0.2-0.1,0.3c0,0.2-0.1,0.3-0.1,0.5c0,0,0,0.1,0,0.1c0,0,0,0,0,0.1c0,0.1,0,0.2,0,0.3c0,0,0,0,0,0
	c-0.2,0-0.2,0.3,0,0.3C4.1,5.8,4,5.9,4,6C3.9,6,3.9,6.1,3.9,6.2c0,0,0,0.1,0,0.1c0,0,0,0.1,0,0.1c-0.1,0-0.1,0.1-0.1,0.2
	c0,0.1,0,0.2-0.1,0.2c0,0,0,0,0,0.1C3.7,6.9,3.6,7,3.6,7c0,0.1-0.1,0.1-0.2,0.2C3.2,7.4,3.1,7.7,3,8c0,0,0,0.1,0,0.1
	c0,0-0.1,0-0.1,0c0,0,0,0-0.1,0c-0.1,0-0.1,0-0.1,0c-0.1,0-0.1,0-0.2,0c0,0-0.1,0-0.1,0c0,0-0.1-0.1-0.1-0.1c-0.1,0-0.1,0-0.1,0.1
	c-0.1,0-0.2,0-0.3,0c0,0,0,0,0,0c0,0,0,0,0,0c-0.1,0-0.2,0-0.2,0c0,0,0,0-0.1,0c0,0-0.1,0-0.1,0c-0.1,0-0.2,0-0.3,0c0,0-0.1,0-0.1,0
	c0,0-0.1,0-0.1,0c0,0,0,0-0.1,0c0,0,0,0-0.1,0c0,0-0.1,0-0.1,0c0,0,0,0,0,0c0,0-0.1,0-0.1,0C0.5,8.3,0.5,8.2,0.5,8.2z M3.3,13.3
	C3.3,13.3,3.3,13.3,3.3,13.3c-0.1-0.1-0.1-0.3-0.2-0.4c0,0,0,0,0-0.1C3,12.6,3,12.5,2.9,12.4c0-0.1,0-0.2-0.1-0.2c0,0,0-0.1-0.1-0.1
	c-0.2-0.5-0.4-0.9-0.6-1.3c-0.1-0.2-0.2-0.4-0.4-0.6C1.6,9.9,1.5,9.7,1.3,9.6C1,9.3,0.8,9,0.5,8.7c0,0,0,0,0,0c0.4,0,0.8,0,1.2-0.1
	c0,0,0,0,0,0c0.2,0,0.5,0,0.7-0.1c0.2,0,0.5-0.1,0.7-0.1c0,0,0.1,0.1,0.1,0.1c0,0.1,0,0.2,0.1,0.2c0,0,0,0,0,0
	C3.5,9,3.6,9.1,3.8,9.2c0,0.1,0,0.2,0.2,0.2c0,0,0,0,0,0c0,0,0.1,0.1,0.1,0.1c0,0.1,0,0.2,0.1,0.2c0,0,0.1,0,0.1,0
	c0.1,0.1,0.1,0.1,0.2,0.2c-0.1,0.1,0,0.3,0.1,0.3c0.1,0,0.1,0,0.1,0c0,0,0,0.1,0.1,0.1c-0.1,0.1-0.1,0.3,0.1,0.3c0,0,0,0,0.1,0
	C5,10.6,5,10.7,5,10.8c-0.2,0-0.2,0.3,0,0.3c0,0,0.1,0,0.1,0c0,0,0,0.1,0,0.1c0,0,0,0.1,0.1,0.1c0,0,0,0,0,0c0,0,0,0.1,0,0.1
	c0,0,0,0.1-0.1,0.1c0,0-0.1,0-0.1,0c-0.2,0-0.2,0.2-0.1,0.3c0,0,0,0,0,0c0,0,0,0,0,0c0,0-0.1,0-0.1,0c-0.1,0-0.2,0.1-0.1,0.2
	c0,0,0,0-0.1,0c0,0,0,0-0.1,0c-0.1,0-0.2,0.1-0.2,0.2c0,0,0,0,0,0c-0.1,0.1-0.2,0.2-0.2,0.3c0,0,0,0,0,0.1c0,0,0,0-0.1,0
	c-0.1,0-0.2,0.1-0.2,0.2c0,0,0,0,0,0c-0.1,0-0.1,0.1-0.2,0.1c0,0,0,0,0,0c-0.1,0-0.1,0.1-0.2,0.1C3.4,13.2,3.3,13.2,3.3,13.3z
	 M8.5,15.4c-0.3-0.2-0.6-0.4-1-0.6c-0.4-0.2-0.9-0.4-1.3-0.5c0,0,0,0,0,0c0,0-0.1,0-0.1,0c-0.1,0-0.1,0-0.2-0.1c0,0-0.1,0-0.1,0
	c0,0,0,0,0,0C5.5,14,5.2,14,4.9,13.9c0,0-0.1-0.1-0.1-0.1c0,0-0.1,0-0.1,0c-0.1,0-0.2,0-0.4-0.1c0-0.1-0.1-0.1-0.1-0.1
	c0,0-0.1,0-0.1,0c-0.2,0-0.4-0.1-0.6-0.2c0,0,0,0,0,0c0.2-0.2,0.4-0.3,0.6-0.4c0.1-0.1,0.2-0.1,0.2-0.2c0.1-0.1,0.1-0.3,0.2-0.4
	c0.1-0.1,0.2-0.1,0.3-0.2C5,12.2,5.1,12.1,5.1,12c0.1-0.1,0.2-0.2,0.3-0.4c0,0,0.1,0.1,0.1,0.1c0.9,0,1.7,0.3,2.5,0.7c0,0,0,0,0.1,0
	c0.1,0.1,0.3,0.2,0.4,0.2c0,0.3,0,0.7,0,1c0,0.3,0,0.6,0,0.9c0,0.1,0,0.3,0,0.4C8.5,15.2,8.5,15.3,8.5,15.4z M8.6,9.8
	C8.6,9.8,8.6,9.8,8.6,9.8C8.5,9.7,8.5,9.5,8.5,9.3c0-0.1,0-0.2,0-0.3C8.6,9,8.7,9,8.8,8.9c0,0,0.1,0,0.1-0.1C9,9,9.2,9.2,9.4,9.3
	C9.2,9.4,9,9.5,8.8,9.7C8.7,9.7,8.7,9.8,8.6,9.8z M8.7,11c0-0.3,0-0.5,0-0.8c0,0,0.1,0,0.1-0.1C8.8,10,9,10,9.1,9.9
	c0.2-0.1,0.3-0.2,0.5-0.3c0,0,0,0,0,0c0.3,0.3,0.5,0.6,0.7,0.9c0.1,0.2,0.2,0.3,0.4,0.5c0,0,0,0-0.1,0c0,0,0,0-0.1,0
	c-0.1,0-0.1,0.1-0.2,0.1c0,0-0.1,0-0.1,0.1c0,0-0.1,0-0.1,0c-0.1,0-0.1,0.1-0.2,0.1c-0.1,0-0.1,0.1-0.2,0.1c-0.1,0-0.1,0-0.1,0.1
	c-0.1,0.1-0.2,0.1-0.3,0.2c0,0,0,0-0.1,0c-0.1,0-0.2,0.1-0.2,0.2c0,0-0.1,0-0.1,0c0,0-0.1,0-0.1,0.1c0,0,0,0,0,0
	c-0.1,0-0.1,0-0.1,0.1c0,0-0.1,0-0.1,0.1c0,0,0-0.1,0-0.1C8.7,11.6,8.7,11.3,8.7,11z M13.2,13.5c0,0-0.1,0-0.1,0c0,0-0.1,0-0.1,0
	c-0.3,0-0.5,0-0.8,0c0,0,0,0,0,0c0,0,0,0,0,0c0,0-0.1,0-0.1,0c-0.4,0.1-0.8,0.2-1.2,0.4c-0.4,0.2-0.8,0.3-1.1,0.6
	c-0.1,0.1-0.3,0.2-0.4,0.3c0,0,0,0-0.1,0c-0.2,0.1-0.3,0.3-0.5,0.4c0,0,0,0,0,0c0-0.1,0-0.3,0-0.4c0-0.1,0-0.3,0-0.4
	c0-0.3,0-0.6,0-0.9c0-0.4,0-0.8,0-1.2c0,0,0.1,0,0.1-0.1c0.1-0.2,0.3-0.2,0.5-0.3c0.2-0.1,0.4-0.3,0.6-0.4c0.2-0.1,0.4-0.1,0.6-0.2
	c0.2-0.1,0.3-0.2,0.5-0.3c0.1,0.1,0.2,0.2,0.3,0.3c0.4,0.3,0.7,0.7,1.1,1.1c0.3,0.3,0.6,0.7,0.9,1C13.3,13.5,13.3,13.5,13.2,13.5z
	 M15,8.9c-0.1,0-0.1,0.1-0.1,0.2c0,0,0,0.1-0.1,0.1c-0.1,0.2-0.2,0.5-0.4,0.7c-0.1,0-0.1,0.1-0.1,0.1c-0.1,0.2-0.2,0.4-0.3,0.6
	c-0.1,0.2-0.2,0.4-0.3,0.7c0,0.2,0,0.3-0.1,0.5c-0.2,0-0.2,0.3-0.1,0.3c0,0.1,0,0.1-0.1,0.2c-0.1,0-0.1,0.2-0.1,0.3c0,0,0,0,0,0.1
	c0,0.2,0,0.4,0,0.6c-0.6-0.7-1.2-1.3-1.8-1.9c-0.1-0.1-0.3-0.2-0.4-0.4c0,0,0-0.1,0-0.1c0-0.1-0.1-0.2-0.1-0.2c0,0,0,0,0,0
	c0.1-0.4,0.3-0.9,0.5-1.3c0.1-0.2,0.1-0.3,0.2-0.5c0.1,0,0.1-0.1,0.1-0.1c0.1-0.2,0.3-0.4,0.5-0.6c0,0,0,0,0,0c0,0,0,0,0,0
	c0,0,0.1,0.1,0.1,0.1c0.1,0,0.1,0,0.1-0.1c0.1,0,0.2,0,0.3,0c0,0,0,0,0.1,0c0,0,0,0,0.1,0c0.1,0,0.3,0,0.4,0c0.2,0,0.4,0,0.6,0
	c0,0,0.1,0,0.1,0c0.1,0,0.1,0,0.1-0.1c0.3,0,0.6,0,0.8,0.1c0.1,0,0.1,0,0.1,0c0.1,0,0.1,0,0.2,0C15.3,8.4,15.2,8.6,15,8.9z"/>
</svg>
